<?xml version="1.0" encoding="UTF-8"?>
<svg id="Layer_1" xmlns="http://www.w3.org/2000/svg" version="1.1" viewBox="0 0 3611.4 595.28">
  <!-- Generator: Adobe Illustrator 30.2.1, SVG Export Plug-In . SVG Version: 2.1.1 Build 1)  -->
  <defs>
    <style>
      .st0 {
        fill: #ffffff;
      }
    </style>
  </defs>
  <polygon class="st0" points="1552.31 100.65 1552.31 176.3 1808.65 176.3 1808.65 494.63 1884.3 494.63 1884.3 176.3 2140.64 176.3 2140.64 100.65 1552.31 100.65"/>
  <path class="st0" d="M967.54,176.3h486.85v-75.65h-486.82c-55.97,0-101.52,45.54-101.52,101.52v191.39c0,55.73,45.34,101.08,101.08,101.08h487.26v-75.65h-486.79c-14.28,0-25.9-11.62-25.9-25.9v-57.4h449.02v-76.06h-449.02v-57.48c0-14.25,11.59-25.83,25.83-25.83"/>
  <path class="st0" d="M3410.06,100.65h-383.48c-56.17,0-101.89,45.71-101.89,101.89v190.21c0,56.18,45.71,101.89,101.89,101.89h383.48c56.17,0,101.89-45.7,101.89-101.89v-190.21c0-56.18-45.71-101.89-101.89-101.89M3000.34,393.09v-190.9c0-14.27,11.61-25.89,25.89-25.89h384.16c14.28,0,25.89,11.62,25.89,25.89v190.9c0,14.27-11.61,25.89-25.89,25.89h-384.16c-14.28,0-25.89-11.61-25.89-25.89"/>
  <path class="st0" d="M2769.03,357.86c35.42-16.48,57.93-51.53,57.86-90.96l-.12-65.78c-.05-55.4-45.17-100.48-100.58-100.48h-487.43l-.22,393.98h75.65l-.06-127.13,376.44-.15,56.78,127.28h82.68l-61.02-136.77ZM2751.4,202.13v63.44c0,14.27-11.6,25.86-25.86,25.86h-411.43l-.06-115.14h411.51c14.25,0,25.83,11.59,25.83,25.83"/>
  <path class="st0" d="M667.1,100.65H205.71c-55.74,0-101.08,45.34-101.08,101.08v292.9h75.65V202.2c0-14.28,11.62-25.9,25.9-25.9h192.62v318.32h75.65V176.3h192.68c14.25,0,25.84,11.59,25.84,25.83v292.49h75.65V202.16c0-55.98-45.54-101.52-101.52-101.52"/>
  <polygon class="st0" points="1552.31 100.65 1552.31 176.3 1808.65 176.3 1808.65 494.63 1884.3 494.63 1884.3 176.3 2140.64 176.3 2140.64 100.65 1552.31 100.65"/>
  <path class="st0" d="M967.54,176.3h486.85v-75.65h-486.82c-55.97,0-101.52,45.54-101.52,101.52v191.39c0,55.73,45.34,101.08,101.08,101.08h487.26v-75.65h-486.79c-14.28,0-25.9-11.62-25.9-25.9v-57.4h449.02v-76.06h-449.02v-57.48c0-14.25,11.59-25.83,25.83-25.83"/>
  <path class="st0" d="M3410.06,100.65h-383.48c-56.17,0-101.89,45.71-101.89,101.89v190.21c0,56.18,45.71,101.89,101.89,101.89h383.48c56.17,0,101.89-45.7,101.89-101.89v-190.21c0-56.18-45.71-101.89-101.89-101.89M3000.34,393.09v-190.9c0-14.27,11.61-25.89,25.89-25.89h384.16c14.28,0,25.89,11.62,25.89,25.89v190.9c0,14.27-11.61,25.89-25.89,25.89h-384.16c-14.28,0-25.89-11.61-25.89-25.89"/>
  <path class="st0" d="M2769.03,357.86c35.42-16.48,57.93-51.53,57.86-90.96l-.12-65.78c-.05-55.4-45.17-100.48-100.58-100.48h-487.43l-.22,393.98h75.65l-.06-127.13,376.44-.15,56.78,127.28h82.68l-61.02-136.77ZM2751.4,202.13v63.44c0,14.27-11.6,25.86-25.86,25.86h-411.43l-.06-115.14h411.51c14.25,0,25.83,11.59,25.83,25.83"/>
  <path class="st0" d="M667.1,100.65H205.71c-55.74,0-101.08,45.34-101.08,101.08v292.9h75.65V202.2c0-14.28,11.62-25.9,25.9-25.9h192.62v318.32h75.65V176.3h192.68c14.25,0,25.84,11.59,25.84,25.83v292.49h75.65V202.16c0-55.98-45.54-101.52-101.52-101.52"/>
</svg>
