<?xml version="1.0" encoding="UTF-8"?>
<svg id="Layer_6" xmlns="http://www.w3.org/2000/svg" version="1.1" viewBox="0 0 841.89 841.89">
  <!-- Generator: Adobe Illustrator 30.2.1, SVG Export Plug-In . SVG Version: 2.1.1 Build 1)  -->
  <defs>
    <style>
      .st0 {
        fill: none;
        stroke: #1d1d1b;
        stroke-linecap: round;
        stroke-linejoin: round;
      }
    </style>
  </defs>
  <line class="st0" x1="514.79" y1="154.24" x2="77.76" y2="299.77"/>
  <line class="st0" x1="764.6" y1="237.43" x2="514.79" y2="154.24"/>
  <line class="st0" x1="327.57" y1="382.95" x2="764.6" y2="237.43"/>
  <line class="st0" x1="327.57" y1="393.36" x2="764.6" y2="247.83"/>
  <line class="st0" x1="764.05" y1="252.36" x2="764.05" y2="541.31"/>
  <line class="st0" x1="737.05" y1="270.36" x2="737.05" y2="541.31"/>
  <line class="st0" x1="737.08" y1="270.44" x2="716.89" y2="263.72"/>
  <line class="st0" x1="751.49" y1="256.36" x2="763.66" y2="252.31"/>
  <line class="st0" x1="757.63" y1="250.15" x2="763.99" y2="252.27"/>
  <line class="st0" x1="764.6" y1="237.43" x2="764.6" y2="247.83"/>
  <line class="st0" x1="737.11" y1="270.45" x2="716.89" y2="263.72"/>
  <line class="st0" x1="528.29" y1="326.52" x2="528.29" y2="462.8"/>
  <line class="st0" x1="501.29" y1="335.51" x2="501.29" y2="462.8"/>
  <line class="st0" x1="501.68" y1="463.12" x2="513.85" y2="467.17"/>
  <line class="st0" x1="515.72" y1="467.17" x2="527.9" y2="463.12"/>
  <line class="st0" x1="751.17" y1="545.78" x2="763.97" y2="541.52"/>
  <line class="st0" x1="737.13" y1="541.52" x2="749.93" y2="545.78"/>
  <line class="st0" x1="737.44" y1="541.62" x2="749.61" y2="545.68"/>
  <line class="st0" x1="750.42" y1="545.8" x2="750.55" y2="545.8"/>
  <line class="st0" x1="750.55" y1="545.8" x2="750.68" y2="545.8"/>
  <line class="st0" x1="750.3" y1="545.8" x2="750.42" y2="545.8"/>
  <line class="st0" x1="750.68" y1="545.8" x2="750.8" y2="545.8"/>
  <line class="st0" x1="750.17" y1="545.79" x2="750.3" y2="545.8"/>
  <line class="st0" x1="750.8" y1="545.8" x2="750.93" y2="545.79"/>
  <line class="st0" x1="750.05" y1="545.77" x2="750.17" y2="545.79"/>
  <line class="st0" x1="750.93" y1="545.79" x2="751.05" y2="545.77"/>
  <line class="st0" x1="751.05" y1="545.77" x2="751.16" y2="545.75"/>
  <line class="st0" x1="749.94" y1="545.76" x2="750.05" y2="545.77"/>
  <line class="st0" x1="749.83" y1="545.73" x2="749.94" y2="545.76"/>
  <line class="st0" x1="751.16" y1="545.75" x2="751.27" y2="545.73"/>
  <line class="st0" x1="749.73" y1="545.71" x2="749.83" y2="545.73"/>
  <line class="st0" x1="751.27" y1="545.73" x2="751.37" y2="545.71"/>
  <line class="st0" x1="751.37" y1="545.71" x2="751.47" y2="545.68"/>
  <line class="st0" x1="749.63" y1="545.68" x2="749.73" y2="545.71"/>
  <line class="st0" x1="750.47" y1="545.86" x2="750.55" y2="545.87"/>
  <line class="st0" x1="750.55" y1="545.87" x2="750.63" y2="545.86"/>
  <line class="st0" x1="750.63" y1="545.86" x2="750.72" y2="545.86"/>
  <line class="st0" x1="750.38" y1="545.86" x2="750.47" y2="545.86"/>
  <line class="st0" x1="750.72" y1="545.86" x2="750.8" y2="545.85"/>
  <line class="st0" x1="750.3" y1="545.85" x2="750.38" y2="545.86"/>
  <line class="st0" x1="750.22" y1="545.84" x2="750.3" y2="545.85"/>
  <line class="st0" x1="750.8" y1="545.85" x2="750.88" y2="545.84"/>
  <line class="st0" x1="750.14" y1="545.83" x2="750.22" y2="545.84"/>
  <line class="st0" x1="750.88" y1="545.84" x2="750.96" y2="545.83"/>
  <line class="st0" x1="750.96" y1="545.83" x2="751.03" y2="545.82"/>
  <line class="st0" x1="750.07" y1="545.82" x2="750.14" y2="545.83"/>
  <line class="st0" x1="750" y1="545.8" x2="750.07" y2="545.82"/>
  <line class="st0" x1="751.03" y1="545.82" x2="751.1" y2="545.8"/>
  <line class="st0" x1="751.1" y1="545.8" x2="751.16" y2="545.78"/>
  <line class="st0" x1="749.94" y1="545.78" x2="750" y2="545.8"/>
  <line class="st0" x1="751.47" y1="545.68" x2="751.49" y2="545.68"/>
  <line class="st0" x1="749.93" y1="545.78" x2="749.94" y2="545.78"/>
  <line class="st0" x1="751.16" y1="545.78" x2="751.17" y2="545.78"/>
  <line class="st0" x1="514.66" y1="467.3" x2="514.79" y2="467.3"/>
  <line class="st0" x1="514.79" y1="467.3" x2="514.91" y2="467.3"/>
  <line class="st0" x1="514.91" y1="467.3" x2="515.04" y2="467.29"/>
  <line class="st0" x1="514.53" y1="467.29" x2="514.66" y2="467.3"/>
  <line class="st0" x1="514.41" y1="467.28" x2="514.53" y2="467.29"/>
  <line class="st0" x1="515.04" y1="467.29" x2="515.16" y2="467.28"/>
  <line class="st0" x1="514.29" y1="467.27" x2="514.41" y2="467.28"/>
  <line class="st0" x1="515.16" y1="467.28" x2="515.28" y2="467.27"/>
  <line class="st0" x1="515.28" y1="467.27" x2="515.4" y2="467.25"/>
  <line class="st0" x1="514.18" y1="467.25" x2="514.29" y2="467.27"/>
  <line class="st0" x1="515.4" y1="467.25" x2="515.51" y2="467.23"/>
  <line class="st0" x1="515.51" y1="467.23" x2="515.61" y2="467.2"/>
  <line class="st0" x1="515.61" y1="467.2" x2="515.71" y2="467.18"/>
  <line class="st0" x1="514.7" y1="467.36" x2="514.79" y2="467.36"/>
  <line class="st0" x1="514.79" y1="467.36" x2="514.87" y2="467.36"/>
  <line class="st0" x1="514.62" y1="467.35" x2="514.7" y2="467.36"/>
  <line class="st0" x1="514.87" y1="467.36" x2="514.96" y2="467.35"/>
  <line class="st0" x1="514.96" y1="467.35" x2="515.04" y2="467.35"/>
  <line class="st0" x1="514.54" y1="467.35" x2="514.62" y2="467.35"/>
  <line class="st0" x1="514.46" y1="467.34" x2="514.54" y2="467.35"/>
  <line class="st0" x1="515.04" y1="467.35" x2="515.12" y2="467.34"/>
  <line class="st0" x1="514.38" y1="467.33" x2="514.46" y2="467.34"/>
  <line class="st0" x1="515.12" y1="467.34" x2="515.19" y2="467.33"/>
  <line class="st0" x1="515.19" y1="467.33" x2="515.27" y2="467.31"/>
  <line class="st0" x1="514.31" y1="467.31" x2="514.38" y2="467.33"/>
  <line class="st0" x1="515.27" y1="467.31" x2="515.34" y2="467.3"/>
  <line class="st0" x1="514.24" y1="467.3" x2="514.31" y2="467.31"/>
  <line class="st0" x1="514.17" y1="467.28" x2="514.24" y2="467.3"/>
  <line class="st0" x1="515.34" y1="467.3" x2="515.4" y2="467.28"/>
  <line class="st0" x1="515.71" y1="467.18" x2="515.72" y2="467.17"/>
  <line class="st0" x1="515.4" y1="467.28" x2="515.41" y2="467.27"/>
  <line class="st0" x1="341.07" y1="393.21" x2="341.07" y2="682.15"/>
  <line class="st0" x1="78.31" y1="314.7" x2="78.31" y2="603.65"/>
  <line class="st0" x1="314.07" y1="411.21" x2="314.07" y2="682.15"/>
  <line class="st0" x1="77.76" y1="299.77" x2="327.57" y2="382.95"/>
  <line class="st0" x1="77.76" y1="310.17" x2="327.57" y2="393.36"/>
  <line class="st0" x1="105.31" y1="341.71" x2="105.31" y2="603.65"/>
  <line class="st0" x1="314.1" y1="411.29" x2="92.18" y2="337.39"/>
  <line class="st0" x1="77.76" y1="310.17" x2="77.76" y2="299.77"/>
  <line class="st0" x1="84.01" y1="312.25" x2="78.7" y2="314.02"/>
  <line class="st0" x1="328.51" y1="397.21" x2="340.68" y2="393.15"/>
  <line class="st0" x1="327.57" y1="382.95" x2="327.57" y2="393.36"/>
  <line class="st0" x1="334.65" y1="391" x2="341.01" y2="393.12"/>
  <line class="st0" x1="328.2" y1="686.62" x2="340.99" y2="682.36"/>
  <line class="st0" x1="314.15" y1="682.36" x2="326.95" y2="686.62"/>
  <line class="st0" x1="327.44" y1="686.65" x2="327.57" y2="686.65"/>
  <line class="st0" x1="327.57" y1="686.65" x2="327.7" y2="686.65"/>
  <line class="st0" x1="327.32" y1="686.64" x2="327.44" y2="686.65"/>
  <line class="st0" x1="327.7" y1="686.65" x2="327.82" y2="686.64"/>
  <line class="st0" x1="327.82" y1="686.64" x2="327.95" y2="686.63"/>
  <line class="st0" x1="327.19" y1="686.63" x2="327.32" y2="686.64"/>
  <line class="st0" x1="327.07" y1="686.62" x2="327.19" y2="686.63"/>
  <line class="st0" x1="327.95" y1="686.63" x2="328.07" y2="686.62"/>
  <line class="st0" x1="326.96" y1="686.6" x2="327.07" y2="686.62"/>
  <line class="st0" x1="328.07" y1="686.62" x2="328.18" y2="686.6"/>
  <line class="st0" x1="326.85" y1="686.58" x2="326.96" y2="686.6"/>
  <line class="st0" x1="328.18" y1="686.6" x2="328.29" y2="686.58"/>
  <line class="st0" x1="326.75" y1="686.55" x2="326.85" y2="686.58"/>
  <line class="st0" x1="328.29" y1="686.58" x2="328.4" y2="686.55"/>
  <line class="st0" x1="328.4" y1="686.55" x2="328.49" y2="686.53"/>
  <line class="st0" x1="326.65" y1="686.53" x2="326.75" y2="686.55"/>
  <line class="st0" x1="327.57" y1="686.71" x2="327.66" y2="686.71"/>
  <line class="st0" x1="327.49" y1="686.71" x2="327.57" y2="686.71"/>
  <line class="st0" x1="327.4" y1="686.71" x2="327.49" y2="686.71"/>
  <line class="st0" x1="327.66" y1="686.71" x2="327.74" y2="686.71"/>
  <line class="st0" x1="327.74" y1="686.71" x2="327.82" y2="686.7"/>
  <line class="st0" x1="327.32" y1="686.7" x2="327.4" y2="686.71"/>
  <line class="st0" x1="327.24" y1="686.69" x2="327.32" y2="686.7"/>
  <line class="st0" x1="327.82" y1="686.7" x2="327.9" y2="686.69"/>
  <line class="st0" x1="327.16" y1="686.68" x2="327.24" y2="686.69"/>
  <line class="st0" x1="327.9" y1="686.69" x2="327.98" y2="686.68"/>
  <line class="st0" x1="327.98" y1="686.68" x2="328.05" y2="686.66"/>
  <line class="st0" x1="327.09" y1="686.66" x2="327.16" y2="686.68"/>
  <line class="st0" x1="327.02" y1="686.65" x2="327.09" y2="686.66"/>
  <line class="st0" x1="328.05" y1="686.66" x2="328.12" y2="686.65"/>
  <line class="st0" x1="328.12" y1="686.65" x2="328.18" y2="686.63"/>
  <line class="st0" x1="326.96" y1="686.63" x2="327.02" y2="686.65"/>
  <line class="st0" x1="326.63" y1="686.52" x2="326.65" y2="686.53"/>
  <line class="st0" x1="328.49" y1="686.53" x2="328.51" y2="686.52"/>
  <line class="st0" x1="326.95" y1="686.62" x2="326.96" y2="686.63"/>
  <line class="st0" x1="328.18" y1="686.63" x2="328.2" y2="686.62"/>
  <line class="st0" x1="105.23" y1="603.86" x2="92.43" y2="608.12"/>
  <line class="st0" x1="91.18" y1="608.12" x2="78.38" y2="603.86"/>
  <line class="st0" x1="91.93" y1="608.14" x2="91.81" y2="608.14"/>
  <line class="st0" x1="91.81" y1="608.14" x2="91.68" y2="608.14"/>
  <line class="st0" x1="92.06" y1="608.14" x2="91.93" y2="608.14"/>
  <line class="st0" x1="91.68" y1="608.14" x2="91.56" y2="608.14"/>
  <line class="st0" x1="91.56" y1="608.14" x2="91.43" y2="608.13"/>
  <line class="st0" x1="92.18" y1="608.13" x2="92.06" y2="608.14"/>
  <line class="st0" x1="91.43" y1="608.13" x2="91.31" y2="608.11"/>
  <line class="st0" x1="92.3" y1="608.11" x2="92.18" y2="608.13"/>
  <line class="st0" x1="92.42" y1="608.09" x2="92.3" y2="608.11"/>
  <line class="st0" x1="91.31" y1="608.11" x2="91.2" y2="608.09"/>
  <line class="st0" x1="91.2" y1="608.09" x2="91.09" y2="608.07"/>
  <line class="st0" x1="92.53" y1="608.07" x2="92.42" y2="608.09"/>
  <line class="st0" x1="91.09" y1="608.07" x2="90.98" y2="608.05"/>
  <line class="st0" x1="92.63" y1="608.05" x2="92.53" y2="608.07"/>
  <line class="st0" x1="92.73" y1="608.02" x2="92.63" y2="608.05"/>
  <line class="st0" x1="90.98" y1="608.05" x2="90.89" y2="608.02"/>
  <line class="st0" x1="91.81" y1="608.21" x2="91.72" y2="608.2"/>
  <line class="st0" x1="91.89" y1="608.2" x2="91.81" y2="608.21"/>
  <line class="st0" x1="91.72" y1="608.2" x2="91.64" y2="608.2"/>
  <line class="st0" x1="91.98" y1="608.2" x2="91.89" y2="608.2"/>
  <line class="st0" x1="92.06" y1="608.19" x2="91.98" y2="608.2"/>
  <line class="st0" x1="91.64" y1="608.2" x2="91.56" y2="608.19"/>
  <line class="st0" x1="91.56" y1="608.19" x2="91.48" y2="608.18"/>
  <line class="st0" x1="92.14" y1="608.18" x2="92.06" y2="608.19"/>
  <line class="st0" x1="91.48" y1="608.18" x2="91.4" y2="608.17"/>
  <line class="st0" x1="92.22" y1="608.17" x2="92.14" y2="608.18"/>
  <line class="st0" x1="92.29" y1="608.16" x2="92.22" y2="608.17"/>
  <line class="st0" x1="91.4" y1="608.17" x2="91.33" y2="608.16"/>
  <line class="st0" x1="91.33" y1="608.16" x2="91.26" y2="608.14"/>
  <line class="st0" x1="92.36" y1="608.14" x2="92.29" y2="608.16"/>
  <line class="st0" x1="92.42" y1="608.12" x2="92.36" y2="608.14"/>
  <line class="st0" x1="91.26" y1="608.14" x2="91.19" y2="608.12"/>
  <line class="st0" x1="90.89" y1="608.02" x2="90.87" y2="608.02"/>
  <line class="st0" x1="92.74" y1="608.02" x2="92.73" y2="608.02"/>
  <line class="st0" x1="91.19" y1="608.12" x2="91.18" y2="608.12"/>
  <line class="st0" x1="92.43" y1="608.12" x2="92.42" y2="608.12"/>
</svg>